<svg xmlns="http://www.w3.org/2000/svg" version="1.1" xmlns:xlink="http://www.w3.org/1999/xlink" xmlns:svgjs="http://svgjs.dev/svgjs" width="100%" height="100%" viewBox="0 0 1000 600"><rect width="1000" height="600" x="0" y="0" fill="#f4efea"/><g><rect width="333.3333333333333" height="333.3333333333333" y="216.8860430723131" fill="#7d141d" transform="matrix(0.6421326831739915,0,0,0.6421326831739915,0,53.708275888765186)" x="194.663818359375"/><path d="M416.73269003204746 326.7309205986031L333.1364775329575 437.61419868701864L420.8730684812948 437.61419868701864L420.8730684812948 458.5526839874983L301.78789784579874 458.5526839874983L301.78789784579874 439.70410399949594L384.55603465503924 329.76719812805123L303.04972746842657 329.76719812805123L303.04972746842657 308.5526875976218L416.73269003204746 308.5526875976218L416.73269003204746 326.7309205986031Z " fill="#f4efea" transform="matrix(0.6421326831739915,0,0,0.6421326831739915,0,53.708275888765186)"/><path d="M691.266492958676 364.9603765854117L633.1312144599956 442.0718874996991L694.1458345824313 442.0718874996991L694.1458345824313 456.63312942554774L611.3304850229905 456.63312942554774L611.3304850229905 443.5252694621661L668.8898951969197 367.07189377616567L612.2079986607064 367.07189377616567L612.2079986607064 352.31869574206655L691.266492958676 352.31869574206655L691.266492958676 364.9603765854117ZM755.9557014390473 458.55269050805134L755.9557014390473 458.55269050805134Q734.7308403267932 458.55269050805134 721.431024255161 444.622161509311Q708.131208183529 430.69163251057057 708.131208183529 407.38267650874116L708.131208183529 407.38267650874116L708.131208183529 404.09200036730647Q708.131208183529 388.570977900206 714.0544252381114 376.36805387571883Q719.9776422926941 364.19255215241026 730.6449174511783 357.2821322553973Q741.284770308484 350.39913465956295 753.7344950435788 350.39913465956295L753.7344950435788 350.39913465956295Q774.0818425181169 350.39913465956295 785.3524083025309 363.781217634731Q796.6229740869449 377.1907229110775 796.6229740869449 402.17243928480286L796.6229740869449 402.17243928480286L796.6229740869449 409.576460603031L725.9557039496337 409.576460603031Q726.3670384673133 425.0152161665957 734.9776410374006 434.5033323743992Q743.6156659086669 443.9914485822027 756.9154819802991 443.9914485822027L756.9154819802991 443.9914485822027Q766.3761758869239 443.9914485822027 772.9301058686146 440.15232641719547Q779.4840358503054 436.28578195100965 784.3926277612791 429.9238080775691L784.3926277612791 429.9238080775691L795.2792813291924 438.4247214429422Q782.1714213658106 458.55269050805134 755.9557014390473 458.55269050805134ZM753.7344950435788 365.04264348894753L753.7344950435788 365.04264348894753Q742.9301083792013 365.04264348894753 735.608353964509 372.9128439272123Q728.2865995498169 380.75562206429845 726.5589945755635 394.93295177364644L726.5589945755635 394.93295177364644L778.7984783208399 394.93295177364644L778.7984783208399 393.58925901589396Q778.0306538878385 379.987797631297 771.4767239061478 372.5289317107116Q764.9227939244568 365.04264348894753 753.7344950435788 365.04264348894753ZM817.2719668744478 352.31869574206655L834.1366820993007 352.31869574206655L834.7125504240519 365.4265557054483Q846.6686737379314 350.39913465956295 865.9465514665033 350.39913465956295L865.9465514665033 350.39913465956295Q899.0178466879224 350.39913465956295 899.3194920008873 387.69346426249L899.3194920008873 387.69346426249L899.3194920008873 456.63312942554774L881.4675739336037 456.63312942554774L881.4675739336037 387.6111973589542Q881.3853070300679 376.3132092733615 876.3121813120226 370.9384382423515Q871.266477895156 365.53624491016285 860.5443581343145 365.53624491016285L860.5443581343145 365.53624491016285Q851.8789109618697 365.53624491016285 845.3249809801789 370.1431915081714Q838.7710509984881 374.7775604073587 835.0964626405525 382.2912709303014L835.0964626405525 382.2912709303014L835.0964626405525 456.63312942554774L817.2719668744478 456.63312942554774L817.2719668744478 352.31869574206655ZM1013.6430656145658 412.09931231146436L1032.2628081148505 412.09931231146436Q1029.6576895028813 434.36622086850605 1015.8094274076768 446.4594556882787Q1001.9885876136511 458.55269050805134 979.0361215271437 458.55269050805134L979.0361215271437 458.55269050805134Q954.1640943581328 458.55269050805134 939.1640956134261 440.7281947419465Q924.1915191698981 422.90369897584173 924.1915191698981 393.01339069114283L924.1915191698981 393.01339069114283L924.1915191698981 379.4941962100818Q924.1915191698981 359.94209546972377 931.1567836692682 345.07920823091024Q938.1494704698171 330.2437432932752 950.9831074214126 322.29127595147463Q963.8167443730081 314.33880860967406 980.681459597861 314.33880860967406L980.681459597861 314.33880860967406Q1003.0306350584387 314.33880860967406 1016.5498295394998 326.8159556459474Q1030.041601719382 339.2931026822208 1032.2628081148505 361.3954774321908L1032.2628081148505 361.3954774321908L1013.6430656145658 361.3954774321908Q1011.2299031108469 344.61302911087364 1003.1951688655104 337.09931858793095Q995.1330123189953 329.55818576380966 980.681459597861 329.55818576380966L980.681459597861 329.55818576380966Q962.9392307352921 329.55818576380966 952.847823901559 342.69346802837003Q942.7838393690045 355.8013279917517 942.7838393690045 379.987797631297L942.7838393690045 379.987797631297L942.7838393690045 393.58925901589396Q942.7838393690045 416.4320358976868 952.326800179165 429.9238080775691Q961.8697609893259 443.41558025745155 979.0361215271437 443.41558025745155L979.0361215271437 443.41558025745155Q994.4474547895297 443.41558025745155 1002.7015674442953 436.4228934569028Q1010.9556800990606 429.4576289575326 1013.6430656145658 412.09931231146436L1013.6430656145658 412.09931231146436ZM1049.9776146762408 404.777557896772L1049.9776146762408 403.51613204255534Q1049.9776146762408 388.1870656837052 1056.010520935538 375.92929705686083Q1062.043427194835 363.69895073119505 1072.792969256855 357.03533154478976Q1083.5425113188753 350.39913465956295 1097.3359288117224 350.39913465956295L1097.3359288117224 350.39913465956295Q1118.6430568275125 350.39913465956295 1131.7783390920727 365.15233269366206Q1144.9410436578116 379.9055307277612 1144.9410436578116 404.39364568027133L1144.9410436578116 404.39364568027133L1144.9410436578116 405.6276492333093Q1144.9410436578116 420.8744486886236 1139.1275158079436 432.96768350839625Q1133.286565656897 445.0609183281689 1122.4273343901623 451.8068044181101Q1111.5955254246064 458.55269050805134 1097.5278849199728 458.55269050805134L1097.5278849199728 458.55269050805134Q1076.3030238077188 458.55269050805134 1063.1403192419798 443.7994924739522Q1049.9776146762408 429.07371674103183 1049.9776146762408 404.777557896772L1049.9776146762408 404.777557896772ZM1067.9117996470602 405.6276492333093L1067.9117996470602 405.6276492333093Q1067.9117996470602 422.98596587937755 1075.9739561935753 433.48870723079006Q1084.0086904389118 443.9914485822027 1097.5278849199728 443.9914485822027L1097.5278849199728 443.9914485822027Q1111.101924003391 443.9914485822027 1119.109235947549 433.35159572489704Q1127.116547891707 422.6843205664127 1127.116547891707 403.51613204255534L1127.116547891707 403.51613204255534Q1127.116547891707 386.34977150473753 1118.9721244416558 375.7099186474319Q1110.8277009916048 365.04264348894753 1097.3359288117224 365.04264348894753L1097.3359288117224 365.04264348894753Q1084.1183796436262 365.04264348894753 1076.0288007959325 375.54538484036016Q1067.9117996470602 386.07554849295127 1067.9117996470602 405.6276492333093ZM1162.9849178333454 404.96951400502235L1162.9849178333454 403.59839894609127Q1162.9849178333454 379.6038854147963 1174.3651728224738 364.9877988865903Q1185.7180055104238 350.39913465956295 1204.1457919024583 350.39913465956295L1204.1457919024583 350.39913465956295Q1222.4638890897784 350.39913465956295 1233.1585865494412 362.9311262981936L1233.1585865494412 362.9311262981936L1233.1585865494412 308.55270306098464L1251.0105046167248 308.55270306098464L1251.0105046167248 456.63312942554774L1234.6119685119083 456.63312942554774L1233.7344548741924 445.4448305446697Q1223.0397574145295 458.55269050805134 1203.9538357942079 458.55269050805134L1203.9538357942079 458.55269050805134Q1185.8276947151383 458.55269050805134 1174.3925951236524 443.7172255704164Q1162.9849178333454 428.8543383316029 1162.9849178333454 404.96951400502235L1162.9849178333454 404.96951400502235ZM1180.8094135994502 405.6276492333093L1180.8094135994502 405.6276492333093Q1180.8094135994502 423.36987809587833 1188.1311680141425 433.40644032725424Q1195.4803447300135 443.41558025745155 1208.3962485851448 443.41558025745155L1208.3962485851448 443.41558025745155Q1225.3432307135336 443.41558025745155 1233.1585865494412 428.19620310331595L1233.1585865494412 428.19620310331595L1233.1585865494412 380.28944294426185Q1225.1512746052833 365.53624491016285 1208.5882046933953 365.53624491016285L1208.5882046933953 365.53624491016285Q1195.4803447300135 365.53624491016285 1188.1311680141425 375.65507404507457Q1180.8094135994502 385.7739031799864 1180.8094135994502 405.6276492333093ZM1321.951997765822 458.55269050805134L1321.951997765822 458.55269050805134Q1300.7545589547465 458.55269050805134 1287.4273205819359 444.622161509311Q1274.1275045103037 430.69163251057057 1274.1275045103037 407.38267650874116L1274.1275045103037 407.38267650874116L1274.1275045103037 404.09200036730647Q1274.1275045103037 388.570977900206 1280.078143866065 376.36805387571883Q1286.0013609206476 364.19255215241026 1296.641213777953 357.2821322553973Q1307.3084889364372 350.39913465956295 1319.7307913703535 350.39913465956295L1319.7307913703535 350.39913465956295Q1340.0781388448916 350.39913465956295 1351.3487046293053 363.781217634731Q1362.646692714898 377.1907229110775 1362.646692714898 402.17243928480286L1362.646692714898 402.17243928480286L1362.646692714898 409.576460603031L1291.9794225775872 409.576460603031Q1292.363334794088 425.0152161665957 1300.9739373641755 434.5033323743992Q1309.6119622354418 443.9914485822027 1322.9117783070737 443.9914485822027L1322.9117783070737 443.9914485822027Q1332.3724722136985 443.9914485822027 1338.9264021953895 440.15232641719547Q1345.4803321770803 436.28578195100965 1350.388924088054 429.9238080775691L1350.388924088054 429.9238080775691L1361.275577655967 438.4247214429422Q1348.1677176925855 458.55269050805134 1321.951997765822 458.55269050805134ZM1319.7307913703535 365.04264348894753L1319.7307913703535 365.04264348894753Q1308.926404705976 365.04264348894753 1301.6046502912836 372.9128439272123Q1294.2828958765913 380.75562206429845 1292.5552909023381 394.93295177364644L1292.5552909023381 394.93295177364644L1344.7947746476148 394.93295177364644L1344.7947746476148 393.58925901589396Q1344.0269502146132 379.987797631297 1337.4730202329224 372.5289317107116Q1330.9190902512314 365.04264348894753 1319.7307913703535 365.04264348894753Z " fill="#7d141d" transform="matrix(0.6421326831739915,0,0,0.6421326831739915,0,53.708275888765186)"/></g></svg>